<svg xmlns="http://www.w3.org/2000/svg" width="24" height="24" viewBox="0 0 24 24" fill="none">
  <g stroke="#2F3B52" stroke-width="1.8" stroke-linecap="round" stroke-linejoin="round">
    <path d="M12.5 3.5C14.6 6.2 17.5 8.1 17.5 12.2C17.5 15.5 15.1 18.2 12 18.2C8.9 18.2 6.5 15.6 6.5 12.4C6.5 10.1 7.6 8.3 9.3 6.6C10.3 5.6 11.2 4.6 12.5 3.5Z" fill="#FFBE73"/>
    <path d="M11.8 8.8C13 10.2 14.1 11.2 14.1 13C14.1 14.4 13.1 15.5 11.8 15.5C10.5 15.5 9.5 14.4 9.5 13C9.5 11.8 10 10.9 10.8 10.1C11.2 9.7 11.5 9.3 11.8 8.8Z" fill="#FFE1A8"/>
  </g>
</svg>
