<svg width="24" height="24" viewBox="0 0 24 24" fill="none" xmlns="http://www.w3.org/2000/svg">
  <path d="M10.35 5.2C9.11 4.18 7.23 4.08 5.9 5C4.8 5.77 4.25 7.03 4.36 8.25C3.08 8.73 2.2 9.97 2.2 11.42C2.2 12.51 2.7 13.48 3.48 14.12C3.06 15.44 3.57 16.97 4.84 17.77C5.59 18.25 6.48 18.38 7.31 18.2C7.93 19.52 9.27 20.38 10.76 20.38H11.16V5.85C11.16 5.6 11.03 5.36 10.82 5.24L10.35 5.2Z" stroke="#43CFB0" stroke-width="1.9" stroke-linecap="round" stroke-linejoin="round"/>
  <path d="M13.65 5.2C14.89 4.18 16.77 4.08 18.1 5C19.2 5.77 19.75 7.03 19.64 8.25C20.92 8.73 21.8 9.97 21.8 11.42C21.8 12.51 21.3 13.48 20.52 14.12C20.94 15.44 20.43 16.97 19.16 17.77C18.41 18.25 17.52 18.38 16.69 18.2C16.07 19.52 14.73 20.38 13.24 20.38H12.84V5.85C12.84 5.6 12.97 5.36 13.18 5.24L13.65 5.2Z" stroke="#43CFB0" stroke-width="1.9" stroke-linecap="round" stroke-linejoin="round"/>
  <path d="M8.15 9.25H9.8" stroke="#43CFB0" stroke-width="1.9" stroke-linecap="round"/>
  <path d="M7.65 13.1H9.5" stroke="#43CFB0" stroke-width="1.9" stroke-linecap="round"/>
  <path d="M14.2 9.25H15.85" stroke="#43CFB0" stroke-width="1.9" stroke-linecap="round"/>
  <path d="M14.5 13.1H16.35" stroke="#43CFB0" stroke-width="1.9" stroke-linecap="round"/>
  <path d="M12 7.5V18.1" stroke="#43CFB0" stroke-width="1.7" stroke-linecap="round"/>
</svg>
